Coordinates
version=1
nRows=21
nColumns=22
inDegrees=yes

Units are S.I. units (second, meters, Newtons, ...)
If the header above contains a line with 'inDegrees', this indicates whether rotational values are in degrees (yes) or radians (no).

endheader
time	pelvis_tilt	pelvis_list	pelvis_rotation	pelvis_tx	pelvis_ty	pelvis_tz	hip_flexion_r	hip_adduction_r	hip_rotation_r	knee_angle_r	ankle_angle_r	subtalar_angle_r	hip_flexion_l	hip_adduction_l	hip_rotation_l	knee_angle_l	ankle_angle_l	subtalar_angle_l	lumbar_extension	lumbar_bending	lumbar_rotation
      0.01000000	     -7.38743680	      4.83362816	    -38.05048166	     -1.32901695	      0.88460976	     -0.28531119	     11.61221274	     -2.83873993	      2.62724202	    -12.67275561	     14.61617766	      1.90985815	      8.34277686	     -4.28130221	     -9.01497628	    -10.29162132	     13.18273441	      3.81907336	      3.65071884	     -1.13175344	     13.55353809
      0.02000000	     -7.35679136	      4.83858057	    -38.02133543	     -1.32905180	      0.88457916	     -0.28507005	     11.65129675	     -2.83940297	      2.64174379	    -12.81999251	     14.72369592	      1.87783679	      8.27177705	     -4.27426518	     -8.98218556	    -10.21406608	     13.21106458	      3.89132321	      3.63605468	     -1.16437657	     13.51353583
      0.03000000	     -7.32134278	      4.84872978	    -37.99227286	     -1.32911127	      0.88454043	     -0.28475924	     11.70966335	     -2.84148874	      2.64734187	    -13.00741361	     14.83599996	      1.82072178	      8.19739376	     -4.26576867	     -8.96579921	    -10.13351019	     13.22031896	      4.01129675	      3.61914347	     -1.20707974	     13.46737329
      0.04000000	     -7.28723818	      4.88319494	    -37.96095992	     -1.32918752	      0.88446993	     -0.28437359	     11.78272352	     -2.85810744	      2.65817801	    -13.19295034	     14.96302638	      1.70877318	      8.14356582	     -4.24400853	     -8.97695629	    -10.06203320	     13.22477551	      4.24113396	      3.62119102	     -1.27345077	     13.39467476
      0.05000000	     -7.27037142	      4.87616366	    -37.93480440	     -1.32932981	      0.88441163	     -0.28392216	     11.85252634	     -2.82025614	      2.68177988	    -13.39547085	     15.05944220	      1.65940401	      8.08500467	     -4.27566505	     -8.94773312	    -10.00692510	     13.26548382	      4.33624608	      3.59872262	     -1.29358222	     13.34686302
      0.06000000	     -7.25102079	      4.91727751	    -37.90197772	     -1.32946583	      0.88429934	     -0.28341091	     11.95100269	     -2.82450877	      2.69027492	    -13.60264872	     15.19796129	      1.53398034	      8.06067383	     -4.26763405	     -8.95515705	     -9.96254366	     13.28483469	      4.56697266	      3.60988314	     -1.36093206	     13.26031843
      0.07000000	     -7.24300603	      4.92646456	    -37.87477709	     -1.32962818	      0.88420355	     -0.28282630	     12.03163463	     -2.78895274	      2.70952002	    -13.80097767	     15.31290174	      1.44083150	      8.02906123	     -4.29936967	     -8.94537510	     -9.93057198	     13.32669623	      4.72577064	      3.60415106	     -1.39093511	     13.18807821
      0.08000000	     -7.23433966	      4.91881942	    -37.85458049	     -1.32982484	      0.88413177	     -0.28215809	     12.09041032	     -2.73324823	      2.74062122	    -13.98132193	     15.40524208	      1.39834927	      7.98571842	     -4.34972680	     -8.91289269	     -9.90416632	     13.36313993	      4.79450967	      3.58055999	     -1.41009034	     13.13221093
      0.09000000	     -7.22554278	      4.92539905	    -37.83272544	     -1.33000734	      0.88404165	     -0.28142556	     12.15248816	     -2.68938172	      2.75734762	    -14.15781223	     15.52614258	      1.33233284	      7.95652150	     -4.39111382	     -8.89593574	     -9.89396846	     13.40326378	      4.89601493	      3.56751768	     -1.44042374	     13.06101642
      0.10000000	     -7.23407251	      4.95678592	    -37.80535378	     -1.33016789	      0.88391158	     -0.28061984	     12.22958399	     -2.65297203	      2.76644643	    -14.31350914	     15.63594255	      1.17628307	      7.96702360	     -4.42803533	     -8.90762903	     -9.90731414	     13.44929664	      5.12692463	      3.59255876	     -1.47985467	     12.96982645
      0.11000000	     -7.23728104	      4.95351124	    -37.78711843	     -1.33033235	      0.88382830	     -0.27973205	     12.26133446	     -2.58428638	      2.79257508	    -14.44056112	     15.73009281	      1.08213126	      7.94703781	     -4.49510961	     -8.89728857	     -9.92399484	     13.49913953	      5.25077989	      3.58393811	     -1.48963191	     12.89566123
      0.12000000	     -7.23225881	      4.95656886	    -37.77091868	     -1.33046675	      0.88377175	     -0.27878802	     12.26897238	     -2.52451428	      2.84563654	    -14.53516425	     15.79099862	      1.05926949	      7.91802533	     -4.55023125	     -8.87485099	     -9.93790549	     13.51505358	      5.27901021	      3.57396931	     -1.50531590	     12.81678216
      0.13000000	     -7.25747718	      4.96646030	    -37.72547040	     -1.33060320	      0.88364586	     -0.27780808	     12.31173823	     -2.45186726	      2.80611463	    -14.65010488	     15.92010014	      0.86670769	      7.94740294	     -4.62684374	     -8.85889044	     -9.99927609	     13.60064369	      5.48730837	      3.59165934	     -1.51142142	     12.71848337
      0.14000000	     -7.28252288	      4.96616628	    -37.69253208	     -1.33073091	      0.88355025	     -0.27674125	     12.32550590	     -2.36192607	      2.82355615	    -14.72997358	     16.01497761	      0.72692513	      7.95677733	     -4.71474374	     -8.83522214	    -10.04653388	     13.64995153	      5.61802214	      3.60400993	     -1.50336745	     12.62969538
      0.15000000	     -7.28344578	      4.97788571	    -37.67455882	     -1.33084834	      0.88348707	     -0.27559640	     12.31576783	     -2.29313300	      2.87430406	    -14.79175637	     16.08376815	      0.70139123	      7.94050828	     -4.77807880	     -8.81310411	    -10.07854537	     13.65612103	      5.63993971	      3.60419437	     -1.51831346	     12.54641901
      0.16000000	     -7.34703704	      4.98091196	    -37.62416987	     -1.33098695	      0.88333089	     -0.27440525	     12.35136513	     -2.17369176	      2.84895220	    -14.86007108	     16.18478786	      0.42860313	      8.02276493	     -4.90279843	     -8.77570404	    -10.20201748	     13.74298927	      5.86181097	      3.65192530	     -1.48746335	     12.44714064
      0.17000000	     -7.34728448	      4.99104840	    -37.62239797	     -1.33108726	      0.88325544	     -0.27307861	     12.33521384	     -2.09311073	      2.89833798	    -14.92712529	     16.27950071	      0.40327711	      8.00474337	     -4.97906658	     -8.76297652	    -10.25402783	     13.76373181	      5.87938373	      3.65383626	     -1.49681967	     12.37324861
      0.18000000	     -7.38870476	      4.98752403	    -37.62455078	     -1.33122281	      0.88310367	     -0.27165936	     12.34755601	     -1.96773167	      2.89494965	    -15.00091055	     16.42348138	      0.26700338	      8.05817096	     -5.11140745	     -8.78286382	    -10.40326364	     13.88668629	      5.97481856	      3.68288104	     -1.46682362	     12.33170850
      0.19000000	     -7.45088957	      5.01903209	    -37.64099552	     -1.33145235	      0.88290319	     -0.27017685	     12.40884750	     -1.84304098	      2.98044131	    -15.08290353	     16.49248663	      0.01154680	      8.16696637	     -5.23839080	     -8.79277217	    -10.58047093	     13.94790219	      6.16520285	      3.74662810	     -1.45519736	     12.29030366
      0.20000000	     -7.45657592	      5.02335067	    -37.68793365	     -1.33162612	      0.88276939	     -0.26856724	     12.40050221	     -1.73069317	      3.04647627	    -15.16757280	     16.63499380	     -0.04573805	      8.18331023	     -5.35314414	     -8.81840163	    -10.73442567	     14.02918767	      6.19686707	      3.74485198	     -1.44992021	     12.26958763
      0.21000000	     -7.49921897	      5.04805471	    -37.75755112	     -1.33191462	      0.88256003	     -0.26688774	     12.45337885	     -1.59620630	      3.16251907	    -15.27015682	     16.71448442	     -0.20222418	      8.28722700	     -5.49342281	     -8.87038084	    -10.97753494	     14.14025402	      6.28967406	      3.78105148	     -1.43825151	     12.28834876
